name Walk10.mot
datacolumns 19
datarows 22
range 1.51500000 1.62000000
endheader

                time	   L_ground_force_vx	   L_ground_force_vy	   L_ground_force_vz	   L_ground_force_px	   L_ground_force_py	   L_ground_force_pz	   R_ground_force_vx	   R_ground_force_vy	   R_ground_force_vz	   R_ground_force_px	   R_ground_force_py	   R_ground_force_pz	   L_ground_torque_x	   L_ground_torque_y	   L_ground_torque_z	   R_ground_torque_x	   R_ground_torque_y	   R_ground_torque_z	
          1.51500000	         31.54921398	        634.75175265	         36.44263921	         -0.13143185	          0.00000000	         -0.03967783	         -0.01523115	          0.10776098	         -0.00375104	          0.00018794	          0.00000000	          0.00004943	          0.00000000	         -1.44977721	          0.00000000	          0.00000000	         -0.00011392	          0.00000000	
          1.52000000	         31.26198194	        635.16796594	         37.53109126	         -0.12763719	          0.00000000	         -0.03997930	         -0.02629280	          0.16845754	         -0.00521329	          0.00025781	          0.00000000	          0.00006761	          0.00000000	         -1.39529584	          0.00000000	          0.00000000	         -0.00018777	          0.00000000	
          1.52500000	         30.89242047	        635.97852464	         38.59741535	         -0.12377231	          0.00000000	         -0.04027829	         -0.04029948	          0.24233098	         -0.00685053	          0.00033496	          0.00000000	          0.00008761	          0.00000000	         -1.34160499	          0.00000000	          0.00000000	         -0.00027978	          0.00000000	
          1.53000000	         30.58044852	        637.40706779	         39.62612450	         -0.11991262	          0.00000000	         -0.04056863	         -0.05717114	          0.32764150	         -0.00855876	          0.00041395	          0.00000000	          0.00010801	          0.00000000	         -1.29059623	          0.00000000	          0.00000000	         -0.00038875	          0.00000000	
          1.53500000	         30.46234316	        639.66074186	         40.60864168	         -0.11613165	          0.00000000	         -0.04084520	         -0.07642967	          0.42026560	         -0.01016700	          0.00048609	          0.00000000	          0.00012649	          0.00000000	         -1.24273695	          0.00000000	          0.00000000	         -0.00051073	          0.00000000	
          1.54000000	         30.66188042	        642.90986653	         41.54275612	         -0.11249640	          0.00000000	         -0.04110424	         -0.09703510	          0.51287119	         -0.01142098	          0.00053863	          0.00000000	          0.00013971	          0.00000000	         -1.19722685	          0.00000000	          0.00000000	         -0.00063795	          0.00000000	
          1.54500000	         31.28267450	        647.27290033	         42.42979144	         -0.10906402	          0.00000000	         -0.04134215	         -0.11719964	          0.59402706	         -0.01196788	          0.00055413	          0.00000000	          0.00014309	          0.00000000	         -1.15273435	          0.00000000	          0.00000000	         -0.00075767	          0.00000000	
          1.55000000	         32.40317777	        652.81162667	         43.27216647	         -0.10588052	          0.00000000	         -0.04155400	         -0.13418980	          0.64731965	         -0.01134473	          0.00050996	          0.00000000	          0.00013072	          0.00000000	         -1.10768019	          0.00000000	          0.00000000	         -0.00085091	          0.00000000	
          1.55500000	         34.07459742	        659.53171858	         44.07057369	         -0.10297918	          0.00000000	         -0.04173428	         -0.14413455	          0.65059035	         -0.00897389	          0.00037819	          0.00000000	          0.00009531	          0.00000000	         -1.06039685	          0.00000000	          0.00000000	         -0.00089136	          0.00000000	
          1.56000000	         36.31974712	        667.38612275	         44.81971547	         -0.10037994	          0.00000000	         -0.04187761	         -0.14186635	          0.57545456	         -0.00417010	          0.00012606	          0.00000000	          0.00002834	          0.00000000	         -1.00970080	          0.00000000	          0.00000000	         -0.00084452	          0.00000000	
          1.56500000	         39.13289826	        676.27692102	         45.50323747	         -0.09808821	          0.00000000	         -0.04197899	         -0.12083326	          0.38731961	          0.00383512	         -0.00028264	          0.00000000	         -0.00007960	          0.00000000	         -0.95585374	          0.00000000	          0.00000000	         -0.00066732	          0.00000000	
          1.57000000	         42.48119555	        686.05851598	         46.08902180	         -0.09609566	          0.00000000	         -0.04203446	         -0.07313256	          0.04617842	          0.01584531	         -0.00088510	          0.00000000	         -0.00023809	          0.00000000	         -0.90161088	          0.00000000	          0.00000000	         -0.00030869	          0.00000000	
          1.57500000	         46.30765341	        696.54304919	         46.52695439	         -0.09438245	          0.00000000	         -0.04204205	          0.01027025	         -0.49148534	          0.03261959	         -0.00171541	          0.00000000	         -0.00045587	          0.00000000	         -0.85298360	          0.00000000	          0.00000000	          0.00028861	          0.00000000	
          1.58000000	         50.53271449	        707.50597632	         46.76497687	         -0.09291842	          0.00000000	         -0.04200160	          0.13906029	         -1.26929335	          0.05475415	         -0.00279862	          0.00000000	         -0.00073926	          0.00000000	         -0.81789339	          0.00000000	          0.00000000	          0.00118443	          0.00000000	
          1.58500000	         55.06337961	        718.70221842	         46.77874190	         -0.09166662	          0.00000000	         -0.04191488	          0.32274282	         -2.32565187	          0.08251761	         -0.00414260	          0.00000000	         -0.00109000	          0.00000000	         -0.80246077	          0.00000000	          0.00000000	          0.00243529	          0.00000000	
          1.59000000	         59.81381279	        729.88386352	         46.57177486	         -0.09058882	          0.00000000	         -0.04178537	          0.56937038	         -3.68609773	          0.11563465	         -0.00572749	          0.00000000	         -0.00150250	          0.00000000	         -0.80970466	          0.00000000	          0.00000000	          0.00408551	          0.00000000	
          1.59500000	         64.71335414	        740.81265630	         46.16378523	         -0.08964834	          0.00000000	         -0.04161831	          0.88373704	         -5.35295004	          0.15301569	         -0.00749256	          0.00000000	         -0.00196046	          0.00000000	         -0.83969103	          0.00000000	          0.00000000	          0.00615498	          0.00000000	
          1.60000000	         69.70363282	        751.26579859	         45.58598234	         -0.08881122	          0.00000000	         -0.04141893	          1.26496444	         -7.29203667	          0.19243580	         -0.00932095	          0.00000000	         -0.00243280	          0.00000000	         -0.88993800	          0.00000000	          0.00000000	          0.00862298	          0.00000000	
          1.60500000	         74.73888533	        761.04058226	         44.87725138	         -0.08804949	          0.00000000	         -0.04119243	          1.70343707	         -9.41649613	          0.23017397	         -0.01102256	          0.00000000	         -0.00286933	          0.00000000	         -0.95605067	          0.00000000	          0.00000000	          0.01140807	          0.00000000	
          1.61000000	         79.79114654	        769.95345012	         44.07995316	         -0.08734235	          0.00000000	         -0.04094468	          2.17710078	        -11.56801671	          0.26063520	         -0.01231662	          0.00000000	         -0.00319617	          0.00000000	         -1.03242927	          0.00000000	          0.00000000	          0.01434416	          0.00000000	
          1.61500000	         84.85357503	        777.83164091	         43.23559836	         -0.08667422	          0.00000000	         -0.04068154	          2.64722469	        -13.49639296	          0.27599219	         -0.01281558	          0.00000000	         -0.00331167	          0.00000000	         -1.11284905	          0.00000000	          0.00000000	          0.01715359	          0.00000000	
          1.62000000	         89.93677821	        784.50830695	         42.37989684	         -0.08603336	          0.00000000	         -0.04040792	          3.05384923	        -14.83897953	          0.26590197	         -0.01201311	          0.00000000	         -0.00308335	          0.00000000	         -1.19121108	          0.00000000	          0.00000000	          0.01941904	          0.00000000	
